<mxfile host="app.diagrams.net" modified="2021-01-29T17:22:46.315Z" agent="5.0 (X11; Linux x86_64) AppleWebKit/537.36 (KHTML, like Gecko) Chrome/87.0.4280.141 Safari/537.36" etag="lH6H3f1MvgSWICcLWvyi" version="14.2.4" type="github">
  <diagram id="kgpKYQtTHZ0yAKxKKP6v" name="Page-1">
    <mxGraphModel dx="1382" dy="487" grid="1" gridSize="10" guides="1" tooltips="1" connect="1" arrows="1" fold="1" page="1" pageScale="1" pageWidth="850" pageHeight="1100" math="0" shadow="0">
      <root>
        <mxCell id="0" />
        <mxCell id="1" parent="0" />
        <mxCell id="M4vrQAM-CyEcKXVPgh3F-21" value="State Processes on step()" style="swimlane;html=1;childLayout=stackLayout;resizeParent=1;resizeParentMax=0;horizontal=1;startSize=20;horizontalStack=0;rounded=0;sketch=0;fontSize=10;" vertex="1" parent="1">
          <mxGeometry x="120" y="50" width="590" height="440" as="geometry" />
        </mxCell>
        <mxCell id="M4vrQAM-CyEcKXVPgh3F-22" value="Economic Strategy" style="swimlane;html=1;startSize=20;horizontal=0;" vertex="1" parent="M4vrQAM-CyEcKXVPgh3F-21">
          <mxGeometry y="20" width="590" height="150" as="geometry" />
        </mxCell>
        <mxCell id="M4vrQAM-CyEcKXVPgh3F-47" style="edgeStyle=orthogonalEdgeStyle;curved=0;rounded=1;sketch=0;orthogonalLoop=1;jettySize=auto;html=1;exitX=1;exitY=0.25;exitDx=0;exitDy=0;entryX=0;entryY=0.25;entryDx=0;entryDy=0;fontSize=10;" edge="1" parent="M4vrQAM-CyEcKXVPgh3F-22" source="M4vrQAM-CyEcKXVPgh3F-27" target="M4vrQAM-CyEcKXVPgh3F-39">
          <mxGeometry relative="1" as="geometry">
            <Array as="points">
              <mxPoint x="164" y="70" />
            </Array>
          </mxGeometry>
        </mxCell>
        <mxCell id="M4vrQAM-CyEcKXVPgh3F-27" value="Resources" style="swimlane;childLayout=stackLayout;horizontal=1;startSize=30;horizontalStack=0;rounded=1;fontSize=12;fontStyle=0;strokeWidth=2;resizeParent=0;resizeLast=1;shadow=0;dashed=0;align=center;sketch=0;" vertex="1" parent="M4vrQAM-CyEcKXVPgh3F-22">
          <mxGeometry x="64" y="54" width="100" height="70" as="geometry" />
        </mxCell>
        <mxCell id="M4vrQAM-CyEcKXVPgh3F-28" value="+ persons::Double&#xa;+ treasury::Double" style="align=left;strokeColor=none;fillColor=none;spacingLeft=4;fontSize=10;verticalAlign=top;resizable=0;rotatable=0;part=1;" vertex="1" parent="M4vrQAM-CyEcKXVPgh3F-27">
          <mxGeometry y="30" width="100" height="40" as="geometry" />
        </mxCell>
        <mxCell id="M4vrQAM-CyEcKXVPgh3F-39" value="fund security strategy" style="shape=process;whiteSpace=wrap;html=1;backgroundOutline=1;rounded=0;sketch=0;fontSize=10;" vertex="1" parent="M4vrQAM-CyEcKXVPgh3F-22">
          <mxGeometry x="192" y="60" width="90" height="41" as="geometry" />
        </mxCell>
        <mxCell id="M4vrQAM-CyEcKXVPgh3F-40" value="collect tax" style="shape=process;whiteSpace=wrap;html=1;backgroundOutline=1;rounded=0;sketch=0;fontSize=10;" vertex="1" parent="M4vrQAM-CyEcKXVPgh3F-22">
          <mxGeometry x="322" y="60" width="90" height="41" as="geometry" />
        </mxCell>
        <mxCell id="M4vrQAM-CyEcKXVPgh3F-41" value="" style="edgeStyle=orthogonalEdgeStyle;curved=0;rounded=1;sketch=0;orthogonalLoop=1;jettySize=auto;html=1;fontSize=10;" edge="1" parent="M4vrQAM-CyEcKXVPgh3F-22" source="M4vrQAM-CyEcKXVPgh3F-39" target="M4vrQAM-CyEcKXVPgh3F-40">
          <mxGeometry relative="1" as="geometry" />
        </mxCell>
        <mxCell id="M4vrQAM-CyEcKXVPgh3F-44" style="edgeStyle=orthogonalEdgeStyle;curved=0;rounded=1;sketch=0;orthogonalLoop=1;jettySize=auto;html=1;exitX=1;exitY=0.5;exitDx=0;exitDy=0;entryX=0.5;entryY=0;entryDx=0;entryDy=0;fontSize=10;" edge="1" parent="M4vrQAM-CyEcKXVPgh3F-22" source="M4vrQAM-CyEcKXVPgh3F-42" target="M4vrQAM-CyEcKXVPgh3F-27">
          <mxGeometry relative="1" as="geometry">
            <Array as="points">
              <mxPoint x="570" y="81" />
              <mxPoint x="570" y="34" />
              <mxPoint x="114" y="34" />
            </Array>
          </mxGeometry>
        </mxCell>
        <mxCell id="M4vrQAM-CyEcKXVPgh3F-42" value="Leadership can adjust economic policy (tax rate)" style="shape=process;whiteSpace=wrap;html=1;backgroundOutline=1;rounded=0;sketch=0;fontSize=10;" vertex="1" parent="M4vrQAM-CyEcKXVPgh3F-22">
          <mxGeometry x="462" y="46" width="90" height="70" as="geometry" />
        </mxCell>
        <mxCell id="M4vrQAM-CyEcKXVPgh3F-43" value="" style="edgeStyle=orthogonalEdgeStyle;curved=0;rounded=1;sketch=0;orthogonalLoop=1;jettySize=auto;html=1;fontSize=10;" edge="1" parent="M4vrQAM-CyEcKXVPgh3F-22" source="M4vrQAM-CyEcKXVPgh3F-40" target="M4vrQAM-CyEcKXVPgh3F-42">
          <mxGeometry relative="1" as="geometry" />
        </mxCell>
        <mxCell id="M4vrQAM-CyEcKXVPgh3F-81" style="edgeStyle=orthogonalEdgeStyle;curved=0;rounded=1;sketch=0;orthogonalLoop=1;jettySize=auto;html=1;exitX=0.5;exitY=0;exitDx=0;exitDy=0;entryX=0.426;entryY=1.031;entryDx=0;entryDy=0;entryPerimeter=0;fontSize=10;" edge="1" parent="M4vrQAM-CyEcKXVPgh3F-22" source="M4vrQAM-CyEcKXVPgh3F-79" target="M4vrQAM-CyEcKXVPgh3F-40">
          <mxGeometry relative="1" as="geometry" />
        </mxCell>
        <mxCell id="M4vrQAM-CyEcKXVPgh3F-79" value="Tile" style="shape=hexagon;perimeter=hexagonPerimeter2;whiteSpace=wrap;html=1;fixedSize=1;rounded=0;sketch=0;fontSize=10;size=10;" vertex="1" parent="M4vrQAM-CyEcKXVPgh3F-22">
          <mxGeometry x="340" y="116" width="40" height="30" as="geometry" />
        </mxCell>
        <mxCell id="M4vrQAM-CyEcKXVPgh3F-23" value="Security Strategy" style="swimlane;html=1;startSize=20;horizontal=0;" vertex="1" parent="M4vrQAM-CyEcKXVPgh3F-21">
          <mxGeometry y="170" width="590" height="130" as="geometry" />
        </mxCell>
        <mxCell id="M4vrQAM-CyEcKXVPgh3F-66" style="edgeStyle=orthogonalEdgeStyle;curved=0;rounded=1;sketch=0;orthogonalLoop=1;jettySize=auto;html=1;fontSize=10;exitX=1;exitY=0;exitDx=0;exitDy=0;entryX=0;entryY=0.5;entryDx=0;entryDy=0;" edge="1" parent="M4vrQAM-CyEcKXVPgh3F-23" source="M4vrQAM-CyEcKXVPgh3F-31" target="M4vrQAM-CyEcKXVPgh3F-48">
          <mxGeometry relative="1" as="geometry">
            <mxPoint x="180" y="69" as="sourcePoint" />
            <mxPoint x="180" y="75" as="targetPoint" />
            <Array as="points">
              <mxPoint x="158" y="65" />
            </Array>
          </mxGeometry>
        </mxCell>
        <mxCell id="M4vrQAM-CyEcKXVPgh3F-30" value="Resources" style="swimlane;childLayout=stackLayout;horizontal=1;startSize=30;horizontalStack=0;rounded=1;fontSize=12;fontStyle=0;strokeWidth=2;resizeParent=0;resizeLast=1;shadow=0;dashed=0;align=center;sketch=0;" vertex="1" parent="M4vrQAM-CyEcKXVPgh3F-23">
          <mxGeometry x="58" y="34" width="100" height="70" as="geometry" />
        </mxCell>
        <mxCell id="M4vrQAM-CyEcKXVPgh3F-31" value="+ persons::Double&#xa;+ treasury::Double" style="align=left;strokeColor=none;fillColor=none;spacingLeft=4;fontSize=10;verticalAlign=top;resizable=0;rotatable=0;part=1;" vertex="1" parent="M4vrQAM-CyEcKXVPgh3F-30">
          <mxGeometry y="30" width="100" height="40" as="geometry" />
        </mxCell>
        <mxCell id="M4vrQAM-CyEcKXVPgh3F-48" value="decrement treasury;&amp;nbsp;&lt;br&gt;fund subordinate strategies&amp;nbsp;" style="shape=process;whiteSpace=wrap;html=1;backgroundOutline=1;rounded=0;sketch=0;fontSize=10;" vertex="1" parent="M4vrQAM-CyEcKXVPgh3F-23">
          <mxGeometry x="192" y="29.75" width="90" height="70.5" as="geometry" />
        </mxCell>
        <mxCell id="M4vrQAM-CyEcKXVPgh3F-49" value="calculate need" style="shape=process;whiteSpace=wrap;html=1;backgroundOutline=1;rounded=0;sketch=0;fontSize=10;" vertex="1" parent="M4vrQAM-CyEcKXVPgh3F-23">
          <mxGeometry x="322" y="44.5" width="90" height="41" as="geometry" />
        </mxCell>
        <mxCell id="M4vrQAM-CyEcKXVPgh3F-50" value="" style="edgeStyle=orthogonalEdgeStyle;curved=0;rounded=1;sketch=0;orthogonalLoop=1;jettySize=auto;html=1;fontSize=10;" edge="1" parent="M4vrQAM-CyEcKXVPgh3F-23" source="M4vrQAM-CyEcKXVPgh3F-48" target="M4vrQAM-CyEcKXVPgh3F-49">
          <mxGeometry relative="1" as="geometry" />
        </mxCell>
        <mxCell id="M4vrQAM-CyEcKXVPgh3F-51" value="Leadership can change priorities for all Processes and Institutions&amp;nbsp;" style="shape=process;whiteSpace=wrap;html=1;backgroundOutline=1;rounded=0;sketch=0;fontSize=10;" vertex="1" parent="M4vrQAM-CyEcKXVPgh3F-23">
          <mxGeometry x="462" y="20" width="90" height="90" as="geometry" />
        </mxCell>
        <mxCell id="M4vrQAM-CyEcKXVPgh3F-52" value="" style="edgeStyle=orthogonalEdgeStyle;curved=0;rounded=1;sketch=0;orthogonalLoop=1;jettySize=auto;html=1;fontSize=10;" edge="1" parent="M4vrQAM-CyEcKXVPgh3F-23" source="M4vrQAM-CyEcKXVPgh3F-49" target="M4vrQAM-CyEcKXVPgh3F-51">
          <mxGeometry relative="1" as="geometry" />
        </mxCell>
        <mxCell id="M4vrQAM-CyEcKXVPgh3F-24" value="Foreign Strategy" style="swimlane;html=1;startSize=20;horizontal=0;" vertex="1" parent="M4vrQAM-CyEcKXVPgh3F-21">
          <mxGeometry y="300" width="590" height="140" as="geometry" />
        </mxCell>
        <mxCell id="M4vrQAM-CyEcKXVPgh3F-33" value="Resources" style="swimlane;childLayout=stackLayout;horizontal=1;startSize=30;horizontalStack=0;rounded=1;fontSize=12;fontStyle=0;strokeWidth=2;resizeParent=0;resizeLast=1;shadow=0;dashed=0;align=center;sketch=0;" vertex="1" parent="M4vrQAM-CyEcKXVPgh3F-24">
          <mxGeometry x="64" y="34" width="100" height="70" as="geometry" />
        </mxCell>
        <mxCell id="M4vrQAM-CyEcKXVPgh3F-34" value="+ persons::Double&#xa;+ treasury::Double" style="align=left;strokeColor=none;fillColor=none;spacingLeft=4;fontSize=10;verticalAlign=top;resizable=0;rotatable=0;part=1;" vertex="1" parent="M4vrQAM-CyEcKXVPgh3F-33">
          <mxGeometry y="30" width="100" height="40" as="geometry" />
        </mxCell>
        <mxCell id="M4vrQAM-CyEcKXVPgh3F-36" value="War Strategy" style="swimlane;html=1;startSize=20;horizontal=0;" vertex="1" parent="M4vrQAM-CyEcKXVPgh3F-24">
          <mxGeometry y="140" width="590" height="120" as="geometry" />
        </mxCell>
        <mxCell id="M4vrQAM-CyEcKXVPgh3F-37" value="Resources" style="swimlane;childLayout=stackLayout;horizontal=1;startSize=30;horizontalStack=0;rounded=1;fontSize=12;fontStyle=0;strokeWidth=2;resizeParent=0;resizeLast=1;shadow=0;dashed=0;align=center;sketch=0;" vertex="1" parent="M4vrQAM-CyEcKXVPgh3F-36">
          <mxGeometry x="64" y="34" width="100" height="70" as="geometry" />
        </mxCell>
        <mxCell id="M4vrQAM-CyEcKXVPgh3F-38" value="+ persons::Double&#xa;+ treasury::Double" style="align=left;strokeColor=none;fillColor=none;spacingLeft=4;fontSize=10;verticalAlign=top;resizable=0;rotatable=0;part=1;" vertex="1" parent="M4vrQAM-CyEcKXVPgh3F-37">
          <mxGeometry y="30" width="100" height="40" as="geometry" />
        </mxCell>
        <mxCell id="M4vrQAM-CyEcKXVPgh3F-58" value="decrement treasury 2x milex/pax&amp;nbsp;&lt;br&gt;&lt;br&gt;decrement battle losses" style="shape=process;whiteSpace=wrap;html=1;backgroundOutline=1;rounded=0;sketch=0;fontSize=10;" vertex="1" parent="M4vrQAM-CyEcKXVPgh3F-36">
          <mxGeometry x="192" y="34" width="90" height="70" as="geometry" />
        </mxCell>
        <mxCell id="M4vrQAM-CyEcKXVPgh3F-59" value="calculate gap" style="shape=process;whiteSpace=wrap;html=1;backgroundOutline=1;rounded=0;sketch=0;fontSize=10;" vertex="1" parent="M4vrQAM-CyEcKXVPgh3F-36">
          <mxGeometry x="322" y="48.5" width="90" height="41" as="geometry" />
        </mxCell>
        <mxCell id="M4vrQAM-CyEcKXVPgh3F-60" value="" style="edgeStyle=orthogonalEdgeStyle;curved=0;rounded=1;sketch=0;orthogonalLoop=1;jettySize=auto;html=1;fontSize=10;" edge="1" parent="M4vrQAM-CyEcKXVPgh3F-36" source="M4vrQAM-CyEcKXVPgh3F-58" target="M4vrQAM-CyEcKXVPgh3F-59">
          <mxGeometry relative="1" as="geometry" />
        </mxCell>
        <mxCell id="M4vrQAM-CyEcKXVPgh3F-61" value="new war requirement" style="shape=process;whiteSpace=wrap;html=1;backgroundOutline=1;rounded=0;sketch=0;fontSize=10;" vertex="1" parent="M4vrQAM-CyEcKXVPgh3F-36">
          <mxGeometry x="462" y="48.5" width="90" height="41" as="geometry" />
        </mxCell>
        <mxCell id="M4vrQAM-CyEcKXVPgh3F-62" value="" style="edgeStyle=orthogonalEdgeStyle;curved=0;rounded=1;sketch=0;orthogonalLoop=1;jettySize=auto;html=1;fontSize=10;" edge="1" parent="M4vrQAM-CyEcKXVPgh3F-36" source="M4vrQAM-CyEcKXVPgh3F-59" target="M4vrQAM-CyEcKXVPgh3F-61">
          <mxGeometry relative="1" as="geometry" />
        </mxCell>
        <mxCell id="M4vrQAM-CyEcKXVPgh3F-70" style="edgeStyle=orthogonalEdgeStyle;curved=0;rounded=1;sketch=0;orthogonalLoop=1;jettySize=auto;html=1;exitX=1;exitY=0.25;exitDx=0;exitDy=0;entryX=0;entryY=0.5;entryDx=0;entryDy=0;fontSize=10;" edge="1" parent="M4vrQAM-CyEcKXVPgh3F-36" source="M4vrQAM-CyEcKXVPgh3F-38" target="M4vrQAM-CyEcKXVPgh3F-58">
          <mxGeometry relative="1" as="geometry">
            <Array as="points">
              <mxPoint x="164" y="69" />
            </Array>
          </mxGeometry>
        </mxCell>
        <mxCell id="M4vrQAM-CyEcKXVPgh3F-53" value="decrement treasury by sum of weekly institution costs" style="shape=process;whiteSpace=wrap;html=1;backgroundOutline=1;rounded=0;sketch=0;fontSize=10;" vertex="1" parent="M4vrQAM-CyEcKXVPgh3F-24">
          <mxGeometry x="190" y="42.5" width="90" height="61.5" as="geometry" />
        </mxCell>
        <mxCell id="M4vrQAM-CyEcKXVPgh3F-54" value="calculate need" style="shape=process;whiteSpace=wrap;html=1;backgroundOutline=1;rounded=0;sketch=0;fontSize=10;" vertex="1" parent="M4vrQAM-CyEcKXVPgh3F-24">
          <mxGeometry x="320" y="53.5" width="90" height="41" as="geometry" />
        </mxCell>
        <mxCell id="M4vrQAM-CyEcKXVPgh3F-55" value="" style="edgeStyle=orthogonalEdgeStyle;curved=0;rounded=1;sketch=0;orthogonalLoop=1;jettySize=auto;html=1;fontSize=10;" edge="1" parent="M4vrQAM-CyEcKXVPgh3F-24" source="M4vrQAM-CyEcKXVPgh3F-53" target="M4vrQAM-CyEcKXVPgh3F-54">
          <mxGeometry relative="1" as="geometry" />
        </mxCell>
        <mxCell id="M4vrQAM-CyEcKXVPgh3F-56" value="submit requirement" style="shape=process;whiteSpace=wrap;html=1;backgroundOutline=1;rounded=0;sketch=0;fontSize=10;" vertex="1" parent="M4vrQAM-CyEcKXVPgh3F-24">
          <mxGeometry x="460" y="53.5" width="90" height="41" as="geometry" />
        </mxCell>
        <mxCell id="M4vrQAM-CyEcKXVPgh3F-57" value="" style="edgeStyle=orthogonalEdgeStyle;curved=0;rounded=1;sketch=0;orthogonalLoop=1;jettySize=auto;html=1;fontSize=10;" edge="1" parent="M4vrQAM-CyEcKXVPgh3F-24" source="M4vrQAM-CyEcKXVPgh3F-54" target="M4vrQAM-CyEcKXVPgh3F-56">
          <mxGeometry relative="1" as="geometry" />
        </mxCell>
        <mxCell id="M4vrQAM-CyEcKXVPgh3F-69" style="edgeStyle=orthogonalEdgeStyle;curved=0;rounded=1;sketch=0;orthogonalLoop=1;jettySize=auto;html=1;exitX=1;exitY=0.25;exitDx=0;exitDy=0;entryX=0;entryY=0.5;entryDx=0;entryDy=0;fontSize=10;" edge="1" parent="M4vrQAM-CyEcKXVPgh3F-24" source="M4vrQAM-CyEcKXVPgh3F-34" target="M4vrQAM-CyEcKXVPgh3F-53">
          <mxGeometry relative="1" as="geometry" />
        </mxCell>
        <mxCell id="M4vrQAM-CyEcKXVPgh3F-63" style="edgeStyle=orthogonalEdgeStyle;curved=0;rounded=1;sketch=0;orthogonalLoop=1;jettySize=auto;html=1;exitX=0.5;exitY=0;exitDx=0;exitDy=0;fontSize=10;entryX=0.25;entryY=1;entryDx=0;entryDy=0;" edge="1" parent="M4vrQAM-CyEcKXVPgh3F-21" source="M4vrQAM-CyEcKXVPgh3F-56" target="M4vrQAM-CyEcKXVPgh3F-49">
          <mxGeometry relative="1" as="geometry">
            <mxPoint x="345" y="260" as="targetPoint" />
            <Array as="points">
              <mxPoint x="505" y="340" />
              <mxPoint x="345" y="340" />
            </Array>
          </mxGeometry>
        </mxCell>
        <mxCell id="M4vrQAM-CyEcKXVPgh3F-64" style="edgeStyle=orthogonalEdgeStyle;curved=0;rounded=1;sketch=0;orthogonalLoop=1;jettySize=auto;html=1;exitX=1;exitY=0.5;exitDx=0;exitDy=0;entryX=0.75;entryY=1;entryDx=0;entryDy=0;fontSize=10;" edge="1" parent="M4vrQAM-CyEcKXVPgh3F-21" source="M4vrQAM-CyEcKXVPgh3F-61" target="M4vrQAM-CyEcKXVPgh3F-49">
          <mxGeometry relative="1" as="geometry">
            <Array as="points">
              <mxPoint x="572" y="509" />
              <mxPoint x="572" y="320" />
              <mxPoint x="390" y="320" />
            </Array>
          </mxGeometry>
        </mxCell>
        <mxCell id="M4vrQAM-CyEcKXVPgh3F-65" style="edgeStyle=orthogonalEdgeStyle;curved=0;rounded=1;sketch=0;orthogonalLoop=1;jettySize=auto;html=1;exitX=0.5;exitY=1;exitDx=0;exitDy=0;fontSize=10;" edge="1" parent="M4vrQAM-CyEcKXVPgh3F-21" source="M4vrQAM-CyEcKXVPgh3F-39" target="M4vrQAM-CyEcKXVPgh3F-30">
          <mxGeometry relative="1" as="geometry">
            <Array as="points">
              <mxPoint x="237" y="180" />
              <mxPoint x="108" y="180" />
            </Array>
          </mxGeometry>
        </mxCell>
        <mxCell id="M4vrQAM-CyEcKXVPgh3F-67" style="edgeStyle=orthogonalEdgeStyle;curved=0;rounded=1;sketch=0;orthogonalLoop=1;jettySize=auto;html=1;exitX=0.75;exitY=1;exitDx=0;exitDy=0;entryX=0.5;entryY=0;entryDx=0;entryDy=0;fontSize=10;" edge="1" parent="M4vrQAM-CyEcKXVPgh3F-21" source="M4vrQAM-CyEcKXVPgh3F-48" target="M4vrQAM-CyEcKXVPgh3F-33">
          <mxGeometry relative="1" as="geometry">
            <Array as="points">
              <mxPoint x="260" y="320" />
              <mxPoint x="114" y="320" />
            </Array>
          </mxGeometry>
        </mxCell>
        <mxCell id="M4vrQAM-CyEcKXVPgh3F-68" style="edgeStyle=orthogonalEdgeStyle;curved=0;rounded=1;sketch=0;orthogonalLoop=1;jettySize=auto;html=1;exitX=0.25;exitY=1;exitDx=0;exitDy=0;entryX=0;entryY=0;entryDx=0;entryDy=0;fontSize=10;" edge="1" parent="M4vrQAM-CyEcKXVPgh3F-21" source="M4vrQAM-CyEcKXVPgh3F-48" target="M4vrQAM-CyEcKXVPgh3F-38">
          <mxGeometry relative="1" as="geometry">
            <Array as="points">
              <mxPoint x="215" y="310" />
              <mxPoint x="40" y="310" />
              <mxPoint x="40" y="504" />
            </Array>
          </mxGeometry>
        </mxCell>
        <mxCell id="M4vrQAM-CyEcKXVPgh3F-71" style="edgeStyle=orthogonalEdgeStyle;curved=0;rounded=1;sketch=0;orthogonalLoop=1;jettySize=auto;html=1;exitX=0.5;exitY=0;exitDx=0;exitDy=0;entryX=0.5;entryY=1;entryDx=0;entryDy=0;fontSize=10;" edge="1" parent="M4vrQAM-CyEcKXVPgh3F-21" source="M4vrQAM-CyEcKXVPgh3F-51" target="M4vrQAM-CyEcKXVPgh3F-42">
          <mxGeometry relative="1" as="geometry" />
        </mxCell>
        <mxCell id="M4vrQAM-CyEcKXVPgh3F-74" style="edgeStyle=orthogonalEdgeStyle;curved=0;rounded=1;sketch=0;orthogonalLoop=1;jettySize=auto;html=1;exitX=1;exitY=0.5;exitDx=0;exitDy=0;exitPerimeter=0;entryX=0;entryY=0.25;entryDx=0;entryDy=0;fontSize=10;" edge="1" parent="1" source="M4vrQAM-CyEcKXVPgh3F-72" target="M4vrQAM-CyEcKXVPgh3F-30">
          <mxGeometry relative="1" as="geometry">
            <Array as="points">
              <mxPoint x="90" y="210" />
              <mxPoint x="160" y="210" />
              <mxPoint x="160" y="272" />
            </Array>
          </mxGeometry>
        </mxCell>
        <mxCell id="M4vrQAM-CyEcKXVPgh3F-76" style="edgeStyle=orthogonalEdgeStyle;curved=0;rounded=1;sketch=0;orthogonalLoop=1;jettySize=auto;html=1;exitX=0.065;exitY=0.884;exitDx=0;exitDy=0;exitPerimeter=0;fontSize=10;entryX=0.75;entryY=1;entryDx=0;entryDy=0;" edge="1" parent="1" source="M4vrQAM-CyEcKXVPgh3F-72" target="M4vrQAM-CyEcKXVPgh3F-34">
          <mxGeometry relative="1" as="geometry">
            <mxPoint x="244" y="456" as="targetPoint" />
            <Array as="points">
              <mxPoint x="15" y="480" />
              <mxPoint x="259" y="480" />
            </Array>
          </mxGeometry>
        </mxCell>
        <mxCell id="M4vrQAM-CyEcKXVPgh3F-72" value="historical milex" style="shape=tape;whiteSpace=wrap;html=1;rounded=0;sketch=0;fontSize=10;" vertex="1" parent="1">
          <mxGeometry x="10" y="190" width="80" height="60" as="geometry" />
        </mxCell>
        <mxCell id="M4vrQAM-CyEcKXVPgh3F-75" style="edgeStyle=orthogonalEdgeStyle;curved=0;rounded=1;sketch=0;orthogonalLoop=1;jettySize=auto;html=1;exitX=1;exitY=0.5;exitDx=0;exitDy=0;exitPerimeter=0;entryX=0;entryY=0;entryDx=0;entryDy=0;fontSize=10;" edge="1" parent="1" source="M4vrQAM-CyEcKXVPgh3F-73" target="M4vrQAM-CyEcKXVPgh3F-31">
          <mxGeometry relative="1" as="geometry">
            <Array as="points">
              <mxPoint x="160" y="340" />
              <mxPoint x="160" y="284" />
            </Array>
          </mxGeometry>
        </mxCell>
        <mxCell id="M4vrQAM-CyEcKXVPgh3F-77" style="edgeStyle=orthogonalEdgeStyle;curved=0;rounded=1;sketch=0;orthogonalLoop=1;jettySize=auto;html=1;exitX=0.246;exitY=0.967;exitDx=0;exitDy=0;exitPerimeter=0;entryX=0.25;entryY=1;entryDx=0;entryDy=0;fontSize=10;" edge="1" parent="1" source="M4vrQAM-CyEcKXVPgh3F-73" target="M4vrQAM-CyEcKXVPgh3F-34">
          <mxGeometry relative="1" as="geometry">
            <Array as="points">
              <mxPoint x="50" y="470" />
              <mxPoint x="209" y="470" />
            </Array>
          </mxGeometry>
        </mxCell>
        <mxCell id="M4vrQAM-CyEcKXVPgh3F-73" value="historical milper" style="shape=tape;whiteSpace=wrap;html=1;rounded=0;sketch=0;fontSize=10;" vertex="1" parent="1">
          <mxGeometry x="30" y="310" width="80" height="60" as="geometry" />
        </mxCell>
      </root>
    </mxGraphModel>
  </diagram>
</mxfile>
